<svg width="20" height="20" viewBox="0 0 20 20" fill="none" xmlns="http://www.w3.org/2000/svg">
<path d="M9.07063 1.05692C9.41438 0.240465 10.5851 0.240466 10.9289 1.05693L12.9576 5.87581C13.1026 6.22001 13.4303 6.45519 13.8064 6.48498L19.0724 6.90206C19.9646 6.97272 20.3264 8.07271 19.6466 8.64798L15.6345 12.0432C15.348 12.2858 15.2228 12.6664 15.3103 13.0289L16.5361 18.1056C16.7438 18.9657 15.7966 19.6456 15.0328 19.1847L10.5243 16.4641C10.2023 16.2698 9.79726 16.2698 9.47523 16.4641L4.96674 19.1847C4.20287 19.6456 3.25571 18.9657 3.46339 18.1056L4.68918 13.0289C4.77673 12.6664 4.65158 12.2858 4.36501 12.0432L0.352818 8.64798C-0.326962 8.07271 0.0348237 6.97272 0.927047 6.90206L6.19311 6.48498C6.56926 6.45519 6.89691 6.22001 7.04182 5.87581L9.07063 1.05692Z" fill="#B0B0B0"/>
</svg>
