<svg width="320" height="224" viewBox="0 0 320 224" fill="none" xmlns="http://www.w3.org/2000/svg">
<path d="M274.933 64.6668C260.933 3.06683 207.2 -24.6665 160 -24.6665C160 -24.6665 160 -24.6665 159.867 -24.6665C112.8 -24.6665 58.9334 2.93349 44.9334 64.5335C29.3334 133.333 71.4667 191.6 109.6 228.267C123.733 241.867 141.867 248.667 160 248.667C178.133 248.667 196.267 241.867 210.267 228.267C248.4 191.6 290.533 133.467 274.933 64.6668ZM160 131.467C136.8 131.467 118 112.667 118 89.4668C118 66.2668 136.8 47.4668 160 47.4668C183.2 47.4668 202 66.2668 202 89.4668C202 112.667 183.2 131.467 160 131.467Z" fill="white" fill-opacity="0.8"/>
</svg>
