<svg width="17" height="16" viewBox="0 0 17 16" fill="none" xmlns="http://www.w3.org/2000/svg">
<path d="M7.74264 0.518812C8.03381 -0.172775 9.02551 -0.172775 9.31668 0.518814L11.0352 4.60069C11.158 4.89225 11.4355 5.09146 11.7541 5.11669L16.2147 5.46998C16.9705 5.52984 17.2769 6.46159 16.7011 6.94888L13.3026 9.82486C13.0599 10.0303 12.9538 10.3527 13.028 10.6598L14.0663 14.96C14.2422 15.6886 13.44 16.2645 12.7929 15.8741L8.97397 13.5696C8.70119 13.405 8.35813 13.405 8.08536 13.5696L4.26641 15.8741C3.61936 16.2645 2.81706 15.6886 2.99298 14.96L4.03129 10.6598C4.10546 10.3527 3.99944 10.0303 3.75671 9.82486L0.358146 6.94888C-0.217667 6.46159 0.0887865 5.52984 0.844551 5.46998L5.30521 5.11669C5.62383 5.09146 5.90137 4.89225 6.02412 4.60069L7.74264 0.518812Z" fill="#F9B811"/>
</svg>
